<svg width="34" height="34" viewBox="0 0 34 34" fill="none" xmlns="http://www.w3.org/2000/svg">
<path d="M3.33333 34C2.41667 34 1.63194 33.6736 0.979167 33.0208C0.326389 32.3681 0 31.5833 0 30.6667V7.33333C0 6.41667 0.326389 5.63194 0.979167 4.97917C1.63194 4.32639 2.41667 4 3.33333 4H18.2083L14.875 7.33333H3.33333V30.6667H26.6667V19.0833L30 15.75V30.6667C30 31.5833 29.6736 32.3681 29.0208 33.0208C28.3681 33.6736 27.5833 34 26.6667 34H3.33333ZM10 24V16.9167L25.2917 1.625C25.625 1.29167 26 1.04167 26.4167 0.875C26.8333 0.708333 27.25 0.625 27.6667 0.625C28.1111 0.625 28.5347 0.708333 28.9375 0.875C29.3403 1.04167 29.7083 1.29167 30.0417 1.625L32.375 4C32.6806 4.33333 32.9167 4.70139 33.0833 5.10417C33.25 5.50694 33.3333 5.91667 33.3333 6.33333C33.3333 6.75 33.2569 7.15972 33.1042 7.5625C32.9514 7.96528 32.7083 8.33333 32.375 8.66667L17.0833 24H10ZM13.3333 20.6667H15.6667L25.3333 11L24.1667 9.83333L22.9583 8.66667L13.3333 18.2917V20.6667Z" fill="white"/>
</svg>
